<svg width="92" height="116" viewBox="0 0 92 116" fill="none" xmlns="http://www.w3.org/2000/svg">
<rect x="0.905273" y="0.611206" width="90.5267" height="115.216" rx="20" fill="#FFFFA5"/>
<rect x="17.5542" y="27.9346" width="53.1137" height="60.7421" fill="white"/>
<g clip-path="url(#clip0)">
<path d="M15.0663 93.3098L8.4458 21.1905L79.769 21.218L73.2041 93.2548L44.0518 101.403L15.0663 93.3098ZM67.8354 89.3735L73.371 27.6042H44.163L44.3856 95.7322L67.8354 89.3735ZM41.4369 36.6604H34.3436L34.2601 73.6284L20.4906 69.9123L20.5184 78.363L41.4369 83.9508V36.6604Z" fill="#D4B830"/>
<path opacity="0.986" d="M20.519 78.3621L20.4912 69.9114C20.4912 69.9114 29.2814 72.3613 34.2607 73.6275L34.3441 36.687H41.4375V83.9499L20.519 78.3621Z" fill="#EBEBEB" fill-opacity="0.9216"/>
<path d="M44.1636 27.5757H73.3716L67.836 89.3451L44.1636 95.7037V27.5757ZM66.3338 78.9951L68.2532 55.9005L54.0665 57.4695V45.1376L69.199 45.0826L69.811 36.6595L46.9731 36.7696L47.2791 67.434L61.0764 65.0943L60.8817 71.9208L46.9731 75.5819L47.1122 83.9499L66.3338 78.9951Z" fill="#FDD83C"/>
</g>
<defs>
<clipPath id="clip0">
<rect width="71.3241" height="80.2396" fill="white" transform="translate(8.44922 21.1855)"/>
</clipPath>
</defs>
</svg>
