<svg width="91" height="116" viewBox="0 0 91 116" fill="none" xmlns="http://www.w3.org/2000/svg">
<rect width="90.5267" height="115.216" rx="20" fill="#8380F6"/>
<g clip-path="url(#clip0)">
<path d="M80.8056 43.4903C80.805 42.1448 80.5172 40.9558 79.9352 39.9354C79.3635 38.9319 78.5073 38.0909 77.3589 37.4259C67.8792 31.9604 58.3903 26.5116 48.9137 21.0405C46.3588 19.5657 43.8817 19.6195 41.3458 21.1155C37.5726 23.3405 18.6815 34.1626 13.0521 37.4228C10.7338 38.7647 9.60574 40.8185 9.60518 43.4878C9.60156 54.4793 9.60518 65.4704 9.60156 76.4622C9.60212 77.7782 9.87766 78.944 10.434 79.9492C11.006 80.983 11.8742 81.8471 13.0491 82.5272C18.6787 85.7874 37.5723 96.6086 41.3447 98.8342C43.8817 100.331 46.3588 100.385 48.9145 98.9092C58.3914 93.4378 67.8809 87.9893 77.362 82.5238C78.5369 81.8441 79.405 80.9794 79.977 79.9464C80.5325 78.9413 80.8086 77.7754 80.8092 76.4591C80.8092 76.4591 80.8092 54.4821 80.8056 43.4903Z" fill="#5C8DBC"/>
<path d="M45.3144 59.8674L10.4341 79.9487C11.0061 80.9825 11.8742 81.8467 13.0491 82.5267C18.6787 85.787 37.5723 96.6082 41.3447 98.8338C43.8817 100.331 46.3589 100.384 48.9145 98.9087C58.3915 93.4374 67.8809 87.9889 77.362 82.5234C78.5369 81.8436 79.405 80.9789 79.977 79.9459L45.3144 59.8674Z" fill="#1A4674"/>
<path d="M34.9834 65.8157C37.0131 69.3587 40.8286 71.7484 45.2056 71.7484C49.6096 71.7484 53.4469 69.3283 55.4662 65.7474L45.3145 59.8674L34.9834 65.8157Z" fill="#1A4674"/>
<path d="M80.8057 43.4899C80.8052 42.1443 80.5174 40.9554 79.9353 39.9349L45.3145 59.8674L79.9771 79.946C80.5327 78.9408 80.8088 77.775 80.8093 76.4587C80.8093 76.4587 80.8093 54.4816 80.8057 43.4899Z" fill="#1B598E"/>
<path d="M78.8995 61.3027H76.1908V64.0116H73.4816V61.3027H70.7733V58.5946H73.4816V55.8862H76.1908V58.5946H78.8995V61.3027ZM69.0158 61.3027H66.3074V64.0116H63.5988V61.3027H60.8901V58.5946H63.5988V55.8862H66.3074V58.5946H69.0158V61.3027Z" fill="white"/>
<path d="M55.4662 65.7475C53.4469 69.3283 49.6096 71.7484 45.2056 71.7484C40.8286 71.7484 37.0131 69.3587 34.9834 65.8157C33.9638 64.0379 33.4283 62.0238 33.4304 59.9744C33.4304 53.472 38.7026 48.2007 45.2056 48.2007C49.5544 48.2007 53.3499 50.5606 55.3896 54.0674L65.6817 48.1414C61.5909 41.0804 53.9534 36.33 45.2056 36.33C32.1455 36.33 21.5586 46.9162 21.5586 59.9744C21.5586 64.2584 22.6984 68.2759 24.6904 71.7411C28.771 78.8394 36.4302 83.619 45.2056 83.619C53.9971 83.619 61.6684 78.8202 65.743 71.701L55.4662 65.7475Z" fill="white"/>
</g>
<defs>
<clipPath id="clip0">
<rect width="71.3241" height="80.2396" fill="white" transform="translate(9.60156 19.8884)"/>
</clipPath>
</defs>
</svg>
