<svg width="207" height="51" viewBox="0 0 207 51" fill="none" xmlns="http://www.w3.org/2000/svg">
<path d="M62.602 19V6.22H63.862V17.884H71.242V19H62.602ZM71.8001 19L76.3001 9.136H77.2361L81.7001 19H80.5121L79.1441 16.03H74.3741L73.0241 19H71.8001ZM76.7681 10.54L74.6441 15.04H78.8561L76.7681 10.54ZM84.669 11.242V19H83.553V9.136H84.417L91.437 17.038V9.154H92.571V19H91.599L84.669 11.242ZM99.878 19.072C99.158 19.072 98.492 18.934 97.88 18.658C97.268 18.37 96.734 17.986 96.278 17.506C95.834 17.026 95.486 16.486 95.234 15.886C94.994 15.286 94.874 14.668 94.874 14.032C94.874 13.372 94.994 12.748 95.234 12.16C95.486 11.56 95.834 11.032 96.278 10.576C96.722 10.108 97.244 9.742 97.844 9.478C98.456 9.214 99.122 9.082 99.842 9.082C100.886 9.082 101.738 9.28 102.398 9.676C103.07 10.072 103.58 10.588 103.928 11.224L103.046 11.818C102.71 11.23 102.26 10.798 101.696 10.522C101.132 10.234 100.502 10.09 99.806 10.09C99.026 10.09 98.348 10.282 97.772 10.666C97.208 11.05 96.77 11.548 96.458 12.16C96.158 12.76 96.008 13.396 96.008 14.068C96.008 14.788 96.182 15.454 96.53 16.066C96.878 16.666 97.346 17.146 97.934 17.506C98.534 17.866 99.206 18.046 99.95 18.046C101.162 18.046 102.266 17.518 103.262 16.462V14.986H100.904V14.122H104.234V19H103.262V17.614C102.29 18.586 101.162 19.072 99.878 19.072ZM111.077 18.046C111.737 18.046 112.289 17.938 112.733 17.722C113.177 17.494 113.525 17.194 113.777 16.822C114.029 16.438 114.209 16.012 114.317 15.544C114.425 15.076 114.479 14.602 114.479 14.122V9.136H115.595V14.122C115.595 15.01 115.445 15.832 115.145 16.588C114.857 17.332 114.383 17.932 113.723 18.388C113.063 18.844 112.187 19.072 111.095 19.072C110.255 19.072 109.541 18.934 108.953 18.658C108.377 18.382 107.915 18.01 107.567 17.542C107.219 17.074 106.967 16.546 106.811 15.958C106.655 15.358 106.577 14.746 106.577 14.122V9.136H107.693V14.122C107.693 14.782 107.795 15.412 107.999 16.012C108.203 16.612 108.551 17.104 109.043 17.488C109.535 17.86 110.213 18.046 111.077 18.046ZM116.835 19L121.335 9.136H122.271L126.735 19H125.547L124.179 16.03H119.409L118.059 19H116.835ZM121.803 10.54L119.679 15.04H123.891L121.803 10.54ZM132.485 19.072C131.765 19.072 131.099 18.934 130.487 18.658C129.875 18.37 129.341 17.986 128.885 17.506C128.441 17.026 128.093 16.486 127.841 15.886C127.601 15.286 127.481 14.668 127.481 14.032C127.481 13.372 127.601 12.748 127.841 12.16C128.093 11.56 128.441 11.032 128.885 10.576C129.329 10.108 129.851 9.742 130.451 9.478C131.063 9.214 131.729 9.082 132.449 9.082C133.493 9.082 134.345 9.28 135.005 9.676C135.677 10.072 136.187 10.588 136.535 11.224L135.653 11.818C135.317 11.23 134.867 10.798 134.303 10.522C133.739 10.234 133.109 10.09 132.413 10.09C131.633 10.09 130.955 10.282 130.379 10.666C129.815 11.05 129.377 11.548 129.065 12.16C128.765 12.76 128.615 13.396 128.615 14.068C128.615 14.788 128.789 15.454 129.137 16.066C129.485 16.666 129.953 17.146 130.541 17.506C131.141 17.866 131.813 18.046 132.557 18.046C133.769 18.046 134.873 17.518 135.869 16.462V14.986H133.511V14.122H136.841V19H135.869V17.614C134.897 18.586 133.769 19.072 132.485 19.072ZM146.6 17.992V19H139.346V9.136H146.456V10.144H140.462V13.51H145.7V14.446H140.462V17.992H146.6ZM155.066 11.116C154.754 10.804 154.352 10.552 153.86 10.36C153.368 10.168 152.804 10.072 152.168 10.072C151.256 10.072 150.59 10.228 150.17 10.54C149.75 10.84 149.54 11.26 149.54 11.8C149.54 12.34 149.774 12.724 150.242 12.952C150.722 13.168 151.466 13.384 152.474 13.6C153.218 13.756 153.86 13.936 154.4 14.14C154.952 14.344 155.372 14.62 155.66 14.968C155.96 15.316 156.11 15.784 156.11 16.372C156.11 16.996 155.942 17.512 155.606 17.92C155.282 18.316 154.832 18.61 154.256 18.802C153.68 18.994 153.02 19.09 152.276 19.09C150.62 19.09 149.192 18.622 147.992 17.686L148.55 16.75C148.946 17.134 149.468 17.458 150.116 17.722C150.764 17.974 151.496 18.1 152.312 18.1C153.104 18.1 153.734 17.968 154.202 17.704C154.682 17.428 154.922 17.026 154.922 16.498C154.922 15.922 154.652 15.508 154.112 15.256C153.572 14.992 152.78 14.752 151.736 14.536C151.004 14.38 150.386 14.2 149.882 13.996C149.39 13.792 149.018 13.528 148.766 13.204C148.514 12.88 148.388 12.448 148.388 11.908C148.388 11.296 148.55 10.78 148.874 10.36C149.198 9.94 149.648 9.622 150.224 9.406C150.8 9.19 151.454 9.082 152.186 9.082C152.894 9.082 153.53 9.184 154.094 9.388C154.658 9.58 155.156 9.856 155.588 10.216L155.066 11.116ZM62.602 40V27.22H66.94C68.296 27.22 69.424 27.508 70.324 28.084C71.236 28.648 71.92 29.416 72.376 30.388C72.832 31.348 73.06 32.416 73.06 33.592C73.06 34.888 72.808 36.016 72.304 36.976C71.8 37.936 71.092 38.68 70.18 39.208C69.268 39.736 68.188 40 66.94 40H62.602ZM71.8 33.592C71.8 32.572 71.608 31.666 71.224 30.874C70.852 30.082 70.3 29.464 69.568 29.02C68.848 28.564 67.972 28.336 66.94 28.336H63.862V38.884H66.94C67.996 38.884 68.884 38.65 69.604 38.182C70.324 37.714 70.87 37.084 71.242 36.292C71.614 35.5 71.8 34.6 71.8 33.592ZM73.7513 40L78.2513 30.136H79.1873L83.6513 40H82.4633L81.0953 37.03H76.3253L74.9753 40H73.7513ZM78.7193 31.54L76.5953 36.04H80.8073L78.7193 31.54ZM91.5736 32.116C91.2616 31.804 90.8596 31.552 90.3676 31.36C89.8756 31.168 89.3116 31.072 88.6756 31.072C87.7636 31.072 87.0976 31.228 86.6776 31.54C86.2576 31.84 86.0476 32.26 86.0476 32.8C86.0476 33.34 86.2816 33.724 86.7496 33.952C87.2296 34.168 87.9736 34.384 88.9816 34.6C89.7256 34.756 90.3676 34.936 90.9076 35.14C91.4596 35.344 91.8796 35.62 92.1676 35.968C92.4676 36.316 92.6176 36.784 92.6176 37.372C92.6176 37.996 92.4496 38.512 92.1136 38.92C91.7896 39.316 91.3396 39.61 90.7636 39.802C90.1876 39.994 89.5276 40.09 88.7836 40.09C87.1276 40.09 85.6996 39.622 84.4996 38.686L85.0576 37.75C85.4536 38.134 85.9756 38.458 86.6236 38.722C87.2716 38.974 88.0036 39.1 88.8196 39.1C89.6116 39.1 90.2416 38.968 90.7096 38.704C91.1896 38.428 91.4296 38.026 91.4296 37.498C91.4296 36.922 91.1596 36.508 90.6196 36.256C90.0796 35.992 89.2876 35.752 88.2436 35.536C87.5116 35.38 86.8936 35.2 86.3896 34.996C85.8976 34.792 85.5256 34.528 85.2736 34.204C85.0216 33.88 84.8956 33.448 84.8956 32.908C84.8956 32.296 85.0576 31.78 85.3816 31.36C85.7056 30.94 86.1556 30.622 86.7316 30.406C87.3076 30.19 87.9616 30.082 88.6936 30.082C89.4016 30.082 90.0376 30.184 90.6016 30.388C91.1656 30.58 91.6636 30.856 92.0956 31.216L91.5736 32.116ZM103.335 30.136V40H102.219V35.464H95.9366V40H94.8206V30.136H95.9366V34.438H102.219V30.136H103.335ZM114.434 37.462C114.434 37.954 114.296 38.392 114.02 38.776C113.744 39.16 113.378 39.46 112.922 39.676C112.466 39.892 111.956 40 111.392 40H106.352V30.136H111.554C112.046 30.136 112.472 30.262 112.832 30.514C113.204 30.754 113.486 31.072 113.678 31.468C113.87 31.852 113.966 32.248 113.966 32.656C113.966 33.148 113.834 33.604 113.57 34.024C113.306 34.432 112.934 34.738 112.454 34.942C113.066 35.11 113.546 35.422 113.894 35.878C114.254 36.322 114.434 36.85 114.434 37.462ZM107.468 31.144V34.564H111.086C111.602 34.564 112.028 34.396 112.364 34.06C112.7 33.712 112.868 33.31 112.868 32.854C112.868 32.374 112.706 31.972 112.382 31.648C112.07 31.312 111.668 31.144 111.176 31.144H107.468ZM113.3 37.264C113.3 36.796 113.126 36.382 112.778 36.022C112.442 35.662 112.016 35.482 111.5 35.482H107.468V39.028H111.392C111.752 39.028 112.076 38.944 112.364 38.776C112.652 38.608 112.88 38.392 113.048 38.128C113.216 37.852 113.3 37.564 113.3 37.264ZM121.114 40.072C120.358 40.072 119.668 39.934 119.044 39.658C118.432 39.37 117.898 38.992 117.442 38.524C116.998 38.044 116.656 37.51 116.416 36.922C116.176 36.322 116.056 35.704 116.056 35.068C116.056 34.408 116.182 33.784 116.434 33.196C116.686 32.596 117.04 32.062 117.496 31.594C117.952 31.126 118.486 30.76 119.098 30.496C119.722 30.22 120.394 30.082 121.114 30.082C121.87 30.082 122.554 30.226 123.166 30.514C123.79 30.802 124.324 31.186 124.768 31.666C125.212 32.146 125.554 32.686 125.794 33.286C126.034 33.874 126.154 34.474 126.154 35.086C126.154 35.746 126.028 36.376 125.776 36.976C125.524 37.564 125.17 38.092 124.714 38.56C124.258 39.028 123.724 39.4 123.112 39.676C122.5 39.94 121.834 40.072 121.114 40.072ZM117.19 35.068C117.19 35.764 117.352 36.418 117.676 37.03C118.012 37.63 118.474 38.116 119.062 38.488C119.65 38.86 120.334 39.046 121.114 39.046C121.918 39.046 122.608 38.854 123.184 38.47C123.772 38.074 124.222 37.57 124.534 36.958C124.858 36.346 125.02 35.716 125.02 35.068C125.02 34.384 124.852 33.742 124.516 33.142C124.18 32.53 123.718 32.038 123.13 31.666C122.542 31.294 121.87 31.108 121.114 31.108C120.31 31.108 119.614 31.306 119.026 31.702C118.438 32.086 117.982 32.584 117.658 33.196C117.346 33.796 117.19 34.42 117.19 35.068ZM126.872 40L131.372 30.136H132.308L136.772 40H135.584L134.216 37.03H129.446L128.096 40H126.872ZM131.84 31.54L129.716 36.04H133.928L131.84 31.54ZM138.625 40V30.136H143.179C143.803 30.136 144.355 30.292 144.835 30.604C145.327 30.916 145.711 31.312 145.987 31.792C146.263 32.272 146.401 32.764 146.401 33.268C146.401 33.964 146.179 34.594 145.735 35.158C145.303 35.71 144.733 36.058 144.025 36.202L146.653 40H145.357L142.873 36.418H139.741V40H138.625ZM139.741 35.41H143.215C143.623 35.41 143.977 35.314 144.277 35.122C144.589 34.918 144.829 34.654 144.997 34.33C145.165 34.006 145.249 33.652 145.249 33.268C145.249 32.896 145.153 32.548 144.961 32.224C144.769 31.9 144.511 31.642 144.187 31.45C143.863 31.246 143.503 31.144 143.107 31.144H139.741V35.41ZM148.891 40V30.136H152.563C153.703 30.136 154.657 30.358 155.425 30.802C156.193 31.246 156.769 31.84 157.153 32.584C157.537 33.316 157.729 34.138 157.729 35.05C157.729 36.046 157.513 36.916 157.081 37.66C156.661 38.404 156.061 38.98 155.281 39.388C154.513 39.796 153.607 40 152.563 40H148.891ZM156.577 35.05C156.577 34.282 156.421 33.61 156.109 33.034C155.797 32.446 155.341 31.984 154.741 31.648C154.153 31.312 153.427 31.144 152.563 31.144H150.007V38.992H152.563C153.439 38.992 154.177 38.824 154.777 38.488C155.377 38.14 155.827 37.666 156.127 37.066C156.427 36.466 156.577 35.794 156.577 35.05Z" fill="white"/>
<path d="M39 41L9.49554 26.7786C5.69735 24.9478 5.7312 19.5268 9.55197 17.7436L39 4" stroke="#82BCDD" stroke-width="8" stroke-linecap="round"/>
<path d="M12 4L41.5045 18.2214C45.3026 20.0522 45.2688 25.4732 41.448 27.2564L12 41" stroke="white" stroke-width="8" stroke-linecap="round"/>
</svg>
