<svg width="92" height="116" viewBox="0 0 92 116" fill="none" xmlns="http://www.w3.org/2000/svg">
<rect x="0.489746" y="0.611206" width="90.5267" height="115.216" rx="20" fill="#A1DCFF"/>
<g clip-path="url(#clip0)">
<path d="M45.4496 18.4651C27.3885 18.4651 28.5162 27.3119 28.5162 27.3119L28.5363 36.4774H45.7717V39.2292H21.6906C21.6906 39.2292 10.1333 37.7487 10.1333 58.3325C10.1333 78.917 20.2208 78.187 20.2208 78.187H26.241V68.635C26.241 68.635 25.9165 57.2409 36.1675 57.2409H53.2619C53.2619 57.2409 62.8661 57.4162 62.8661 46.7566V29.1316C62.8661 29.1316 64.3248 18.4651 45.4496 18.4651ZM35.946 24.6287C36.3533 24.6283 36.7567 24.7186 37.133 24.8945C37.5094 25.0703 37.8513 25.3283 38.1393 25.6536C38.4273 25.9789 38.6557 26.3651 38.8114 26.7902C38.9671 27.2153 39.047 27.6709 39.0467 28.1309C39.047 28.591 38.9671 29.0466 38.8114 29.4717C38.6557 29.8968 38.4273 30.283 38.1393 30.6083C37.8513 30.9336 37.5094 31.1916 37.133 31.3674C36.7567 31.5433 36.3533 31.6336 35.946 31.6332C35.5387 31.6336 35.1354 31.5433 34.759 31.3674C34.3827 31.1916 34.0407 30.9336 33.7527 30.6083C33.4647 30.283 33.2364 29.8968 33.0807 29.4717C32.925 29.0466 32.845 28.591 32.8454 28.1309C32.845 27.6709 32.925 27.2153 33.0807 26.7902C33.2364 26.3651 33.4647 25.9789 33.7527 25.6536C34.0407 25.3283 34.3827 25.0703 34.759 24.8945C35.1354 24.7186 35.5387 24.6283 35.946 24.6287Z" fill="url(#paint0_linear)"/>
<path d="M45.961 98.4068C64.0221 98.4068 62.8944 89.56 62.8944 89.56L62.8743 80.3948H45.6386V77.643H69.7197C69.7197 77.643 81.277 79.1235 81.277 58.5391C81.277 37.9549 71.1895 38.685 71.1895 38.685H65.1693V48.2366C65.1693 48.2366 65.4939 59.6307 55.2428 59.6307H38.1484C38.1484 59.6307 28.5442 59.4554 28.5442 70.1153V87.7406C28.5442 87.7406 27.0858 98.4068 45.9607 98.4068H45.961ZM55.4646 92.2438C55.0573 92.2442 54.6539 92.1539 54.2776 91.9781C53.9012 91.8022 53.5593 91.5443 53.2713 91.219C52.9833 90.8937 52.7549 90.5074 52.5992 90.0823C52.4435 89.6572 52.3636 89.2016 52.3639 88.7416C52.3635 88.2815 52.4434 87.8259 52.5991 87.4008C52.7548 86.9756 52.9832 86.5893 53.2712 86.264C53.5592 85.9387 53.9011 85.6807 54.2775 85.5048C54.6539 85.329 55.0573 85.2386 55.4646 85.2391C55.8719 85.2386 56.2752 85.3289 56.6516 85.5048C57.0279 85.6807 57.3699 85.9386 57.6579 86.2639C57.9459 86.5892 58.1742 86.9754 58.3299 87.4005C58.4856 87.8256 58.5656 88.2812 58.5652 88.7413C58.5656 89.2013 58.4856 89.6569 58.3299 90.082C58.1742 90.5071 57.9459 90.8933 57.6579 91.2186C57.3699 91.5439 57.0279 91.8019 56.6516 91.9777C56.2752 92.1536 55.8719 92.2439 55.4646 92.2435V92.2438Z" fill="url(#paint1_linear)"/>
</g>
<defs>
<linearGradient id="paint0_linear" x1="16.9703" y1="25.6554" x2="56.4527" y2="60.2617" gradientUnits="userSpaceOnUse">
<stop stop-color="#387EB8"/>
<stop offset="1" stop-color="#366994"/>
</linearGradient>
<linearGradient id="paint1_linear" x1="38.6098" y1="50.9726" x2="80.7739" y2="86.2611" gradientUnits="userSpaceOnUse">
<stop stop-color="#FFE052"/>
<stop offset="1" stop-color="#FFC331"/>
</linearGradient>
<clipPath id="clip0">
<rect width="71.3241" height="80.2396" fill="white" transform="translate(10.0913 18.4422)"/>
</clipPath>
</defs>
</svg>
